<?xml version="1.0" encoding="utf-8"?>
<!-- Generator: Adobe Illustrator 16.0.0, SVG Export Plug-In . SVG Version: 6.00 Build 0)  -->
<!DOCTYPE svg PUBLIC "-//W3C//DTD SVG 1.1//EN" "http://www.w3.org/Graphics/SVG/1.1/DTD/svg11.dtd">
<svg version="1.1" id="file-edit_1_" xmlns="http://www.w3.org/2000/svg" xmlns:xlink="http://www.w3.org/1999/xlink" x="0px"
	 y="0px" width="28px" height="28px" viewBox="0 0 28 28" enable-background="new 0 0 28 28" xml:space="preserve">
<g id="file-edit">
	<g>
		<path fill-rule="evenodd" clip-rule="evenodd" fill="#FFFFFF" d="M26.159,17.271c-1.083-1.091-2.972-1.091-4.055,0
			c-0.013,0.013-0.017,0.03-0.029,0.044c-0.014,0.013-0.031,0.017-0.045,0.03L16.402,23c-0.019,0.019-0.024,0.043-0.041,0.063
			c-0.049,0.057-0.088,0.116-0.122,0.184c-0.026,0.052-0.048,0.102-0.064,0.156c-0.01,0.032-0.031,0.058-0.038,0.092l-0.658,3.366
			c-0.061,0.315,0.038,0.641,0.265,0.868c0.183,0.183,0.427,0.283,0.68,0.283c0.062,0,0.124-0.007,0.186-0.019l3.351-0.662
			c0.026-0.005,0.045-0.022,0.07-0.029c0.071-0.02,0.137-0.048,0.203-0.084c0.049-0.028,0.094-0.058,0.138-0.093
			c0.027-0.021,0.06-0.031,0.085-0.057l5.629-5.652c0.015-0.015,0.02-0.034,0.033-0.05c0.012-0.011,0.027-0.015,0.039-0.026
			c0.543-0.542,0.843-1.264,0.843-2.033C27,18.536,26.701,17.813,26.159,17.271z M24.801,19.972c-0.015,0.015-0.02,0.034-0.033,0.05
			c-0.014,0.012-0.031,0.017-0.044,0.029l-5.419,5.442l-1.663,0.328l0.325-1.662l5.424-5.449c0.014-0.014,0.018-0.031,0.03-0.045
			c0.014-0.013,0.032-0.018,0.046-0.031c0.355-0.357,0.973-0.359,1.333,0.002c0.179,0.179,0.276,0.417,0.276,0.669
			C25.076,19.558,24.979,19.795,24.801,19.972z M23.154,13.53c0,0.533,0.43,0.966,0.961,0.966s0.961-0.433,0.961-0.966V9.773
			c0.004-0.034,0.02-0.063,0.02-0.097c0-0.325-0.16-0.613-0.405-0.788l-8.55-8.583c-0.081-0.081-0.176-0.14-0.276-0.187
			c-0.028-0.014-0.059-0.021-0.089-0.032c-0.084-0.029-0.168-0.046-0.256-0.052c-0.021-0.001-0.038-0.012-0.059-0.012H3.923
			C2.862,0.022,2,0.888,2,1.953v21.223c0,1.065,0.863,1.932,1.923,1.932h8.654c0.531,0,0.961-0.433,0.961-0.966
			s-0.431-0.966-0.961-0.966H3.923V1.904H14.5v7.771c0,0.533,0.43,0.965,0.961,0.965h7.693V13.53z M16.423,8.71V3.317l5.371,5.393
			H16.423z"/>
	</g>
</g>
</svg>
