<?xml version="1.0" encoding="utf-8"?>
<!-- Generator: Adobe Illustrator 16.0.0, SVG Export Plug-In . SVG Version: 6.00 Build 0)  -->
<!DOCTYPE svg PUBLIC "-//W3C//DTD SVG 1.1//EN" "http://www.w3.org/Graphics/SVG/1.1/DTD/svg11.dtd">
<svg version="1.1" id="e3866539-15f4-430f-92e8-a39661b64412"
	 xmlns="http://www.w3.org/2000/svg" xmlns:xlink="http://www.w3.org/1999/xlink" x="0px" y="0px" width="496px" height="367px"
	 viewBox="209.845 156.14 496 367" enable-background="new 209.845 156.14 496 367" xml:space="preserve">
<g>
	
		<linearGradient id="SVGID_1_" gradientUnits="userSpaceOnUse" x1="549.9709" y1="64.3752" x2="549.9709" y2="391.4245" gradientTransform="matrix(1.0183 0.0082 -0.0073 -1.0344 -127.8625 557.5841)">
		<stop  offset="0" style="stop-color:#808080;stop-opacity:0.25"/>
		<stop  offset="0.54" style="stop-color:#808080;stop-opacity:0.12"/>
		<stop  offset="1" style="stop-color:#808080;stop-opacity:0.1"/>
	</linearGradient>
	<path fill="url(#SVGID_1_)" d="M222.048,265.167l345.915-107.476c7.799-2.423,16.086,1.935,18.509,9.734l62.225,200.271
		c2.423,7.799-1.935,16.086-9.734,18.509L293.047,493.681c-7.799,2.424-16.086-1.935-18.51-9.733l-62.224-200.271
		C209.89,275.877,214.248,267.59,222.048,265.167z"/>
	<path fill="#FFFFFF" d="M227.891,265.957l338.283-105.105c7.8-2.423,16.087,1.935,18.51,9.734l59.711,192.183
		c2.424,7.799-1.935,16.086-9.733,18.509L296.377,486.384c-7.799,2.423-16.086-1.936-18.509-9.734l-59.711-192.183
		C215.734,276.667,220.092,268.38,227.891,265.957z"/>
	
		<rect x="219.06" y="241.708" transform="matrix(-0.955 0.2967 -0.2967 -0.955 880.0505 382.9528)" fill="#2FE08F" width="383.81" height="33.103"/>
	
		<rect x="298.489" y="425.952" transform="matrix(-0.955 0.2967 -0.2967 -0.955 807.3637 743.687)" fill="#BDBDBD" width="97.517" height="14.314"/>
	
		<rect x="289.708" y="392.264" transform="matrix(-0.955 0.2967 -0.2967 -0.955 850.1631 669.8126)" fill="#E0E0E0" width="169.089" height="14.315"/>
	
		<linearGradient id="SVGID_2_" gradientUnits="userSpaceOnUse" x1="482.0911" y1="148.3596" x2="482.0911" y2="387.8865" gradientTransform="matrix(1 0 0 -1 24.9448 670.6392)">
		<stop  offset="0" style="stop-color:#808080;stop-opacity:0.25"/>
		<stop  offset="0.54" style="stop-color:#808080;stop-opacity:0.12"/>
		<stop  offset="1" style="stop-color:#808080;stop-opacity:0.1"/>
	</linearGradient>
	<path fill="url(#SVGID_2_)" d="M324.817,282.753h364.436c8.167,0,14.788,6.621,14.788,14.788v209.951
		c0,8.168-6.621,14.788-14.788,14.788H324.817c-8.167,0-14.788-6.62-14.788-14.788V297.541
		C310.03,289.374,316.65,282.753,324.817,282.753z"/>
	<path fill="#FFFFFF" d="M329.291,285.194h354.236c8.167,0,14.787,6.621,14.787,14.788v201.246c0,8.167-6.62,14.787-14.787,14.787
		H329.291c-8.167,0-14.788-6.62-14.788-14.787V299.982C314.503,291.815,321.124,285.194,329.291,285.194z"/>
	<rect x="344.471" y="321.427" fill="#E0E0E0" width="11.185" height="31.758"/>
	<rect x="358.786" y="321.427" fill="#E0E0E0" width="11.185" height="31.758"/>
	<rect x="373.1" y="321.427" fill="#E0E0E0" width="11.185" height="31.758"/>
	<rect x="398.153" y="321.427" fill="#E0E0E0" width="11.185" height="31.758"/>
	<rect x="412.468" y="321.427" fill="#E0E0E0" width="11.185" height="31.758"/>
	<rect x="426.781" y="321.427" fill="#E0E0E0" width="11.185" height="31.758"/>
	<rect x="451.829" y="321.427" fill="#E0E0E0" width="11.185" height="31.758"/>
	<rect x="466.149" y="321.427" fill="#E0E0E0" width="11.186" height="31.758"/>
	<rect x="480.463" y="321.427" fill="#E0E0E0" width="11.186" height="31.758"/>
	<rect x="505.511" y="321.427" fill="#E0E0E0" width="11.185" height="31.758"/>
	<rect x="519.825" y="321.427" fill="#E0E0E0" width="11.185" height="31.758"/>
	<rect x="534.14" y="321.427" fill="#E0E0E0" width="11.185" height="31.758"/>
	<rect x="344.471" y="481.568" fill="#BDBDBD" width="97.517" height="14.314"/>
	<rect x="344.471" y="457.413" fill="#E0E0E0" width="169.089" height="14.314"/>
	
		<linearGradient id="SVGID_3_" gradientUnits="userSpaceOnUse" x1="730.345" y1="156.4836" x2="730.345" y2="179.6594" gradientTransform="matrix(1 0 0 -1 -117.2153 560.2798)">
		<stop  offset="0" style="stop-color:#000000;stop-opacity:0.12"/>
		<stop  offset="0.55" style="stop-color:#000000;stop-opacity:0.09"/>
		<stop  offset="1" style="stop-color:#000000;stop-opacity:0.02"/>
	</linearGradient>
	<path fill="url(#SVGID_3_)" d="M622.521,403.21c-0.045-1.3,0.971-2.39,2.27-2.437h3.366V380.62h-30.054v23.176h24.413
		L622.521,403.21z"/>
	
		<linearGradient id="SVGID_4_" gradientUnits="userSpaceOnUse" x1="730.3479" y1="115.1858" x2="730.3479" y2="138.3625" gradientTransform="matrix(1 0 0 -1 -117.2153 560.2798)">
		<stop  offset="0" style="stop-color:#000000;stop-opacity:0.12"/>
		<stop  offset="0.55" style="stop-color:#000000;stop-opacity:0.09"/>
		<stop  offset="1" style="stop-color:#000000;stop-opacity:0.02"/>
	</linearGradient>
	<path fill="url(#SVGID_4_)" d="M624.79,424.961c-1.299-0.047-2.314-1.137-2.27-2.436v-0.608h-24.413v23.177h30.049v-20.133H624.79z
		"/>
	
		<linearGradient id="SVGID_5_" gradientUnits="userSpaceOnUse" x1="585.3704" y1="251.7278" x2="585.3704" y2="263.8215" gradientTransform="matrix(1 0 0 -1 24.9448 670.6392)">
		<stop  offset="0" style="stop-color:#000000;stop-opacity:0.12"/>
		<stop  offset="0.55" style="stop-color:#000000;stop-opacity:0.09"/>
		<stop  offset="1" style="stop-color:#000000;stop-opacity:0.02"/>
	</linearGradient>
	<rect x="598.108" y="406.818" fill="url(#SVGID_5_)" width="24.413" height="12.094"/>
	
		<linearGradient id="SVGID_6_" gradientUnits="userSpaceOnUse" x1="763.2307" y1="115.1643" x2="763.2307" y2="138.3625" gradientTransform="matrix(1 0 0 -1 -117.2153 560.2798)">
		<stop  offset="0" style="stop-color:#000000;stop-opacity:0.12"/>
		<stop  offset="0.55" style="stop-color:#000000;stop-opacity:0.09"/>
		<stop  offset="1" style="stop-color:#000000;stop-opacity:0.02"/>
	</linearGradient>
	<path fill="url(#SVGID_6_)" d="M636.604,422.526c0.046,1.299-0.97,2.389-2.269,2.436h-3.345v20.154h30.049v-23.198h-24.414
		L636.604,422.526z"/>
	
		<linearGradient id="SVGID_7_" gradientUnits="userSpaceOnUse" x1="763.2307" y1="156.4836" x2="763.2307" y2="179.6594" gradientTransform="matrix(1 0 0 -1 -117.2153 560.2798)">
		<stop  offset="0" style="stop-color:#000000;stop-opacity:0.12"/>
		<stop  offset="0.55" style="stop-color:#000000;stop-opacity:0.09"/>
		<stop  offset="1" style="stop-color:#000000;stop-opacity:0.02"/>
	</linearGradient>
	<path fill="url(#SVGID_7_)" d="M630.99,380.62v20.153h3.366c1.299,0.047,2.314,1.137,2.269,2.437v0.586h24.414V380.62H630.99z"/>
	
		<linearGradient id="SVGID_8_" gradientUnits="userSpaceOnUse" x1="623.8665" y1="251.7278" x2="623.8665" y2="263.8215" gradientTransform="matrix(1 0 0 -1 24.9448 670.6392)">
		<stop  offset="0" style="stop-color:#000000;stop-opacity:0.12"/>
		<stop  offset="0.55" style="stop-color:#000000;stop-opacity:0.09"/>
		<stop  offset="1" style="stop-color:#000000;stop-opacity:0.02"/>
	</linearGradient>
	<rect x="636.604" y="406.818" fill="url(#SVGID_8_)" width="24.413" height="12.094"/>
	<path fill="#2FE08F" d="M622.623,403.436c0-1.188,0.963-2.151,2.15-2.151H628v-17.9h-28.661v20.573h23.289L622.623,403.436z"/>
	<path fill="#2FE08F" d="M624.785,422.745c-1.188,0-2.151-0.963-2.151-2.15v-0.538h-23.3v20.579h28.661v-17.891H624.785z"/>
	<rect x="599.334" y="406.641" fill="#2FE08F" width="23.289" height="10.738"/>
	<path fill="#2FE08F" d="M636.056,420.584c0,1.188-0.963,2.15-2.151,2.15h-3.226v17.896h28.66v-20.567h-23.283V420.584z"/>
	<path fill="#2FE08F" d="M630.684,383.384v17.896h3.227c1.188,0,2.15,0.963,2.15,2.151v0.537h23.289v-20.584H630.684z"/>
	<rect x="636.061" y="406.641" fill="#2FE08F" width="23.289" height="10.738"/>
</g>
</svg>
