<?xml version="1.0" encoding="utf-8"?>
<!-- Generator: Adobe Illustrator 16.0.0, SVG Export Plug-In . SVG Version: 6.00 Build 0)  -->
<!DOCTYPE svg PUBLIC "-//W3C//DTD SVG 1.1//EN" "http://www.w3.org/Graphics/SVG/1.1/DTD/svg11.dtd">
<svg version="1.1" id="cart_1_" xmlns="http://www.w3.org/2000/svg" xmlns:xlink="http://www.w3.org/1999/xlink" x="0px" y="0px"
	 width="36px" height="28px" viewBox="0 0 36 28" enable-background="new 0 0 36 28" xml:space="preserve">
<g id="cart">
	<g>
		<path fill-rule="evenodd" clip-rule="evenodd" fill="#2FE08F" d="M14.246,22.989c-0.668,0-1.325,0.266-1.798,0.731
			c-0.474,0.465-0.743,1.111-0.743,1.77s0.27,1.304,0.743,1.77c0.473,0.466,1.13,0.731,1.798,0.731c0.669,0,1.322-0.266,1.795-0.731
			c0.474-0.466,0.747-1.111,0.747-1.77s-0.273-1.305-0.747-1.77C15.568,23.255,14.915,22.989,14.246,22.989z M28.28,22.989
			c-0.673,0-1.326,0.266-1.799,0.731c-0.474,0.465-0.743,1.111-0.743,1.77s0.27,1.304,0.743,1.77
			c0.473,0.466,1.126,0.731,1.799,0.731c0.668,0,1.321-0.266,1.794-0.731c0.474-0.466,0.747-1.111,0.747-1.77
			s-0.273-1.305-0.747-1.77C29.602,23.255,28.948,22.989,28.28,22.989z M35.68,4.919c-0.295-0.395-0.763-0.657-1.261-0.657H13.854
			c-0.863,0-1.563,0.7-1.563,1.55s0.7,1.55,1.563,1.55h18.433l-3.342,10.46H14.073L7.691,1.042C7.46,0.443,6.873,0,6.223,0H1.574
			C0.71,0,0.01,0.7,0.01,1.55c0,0.851,0.7,1.55,1.564,1.55h3.569l6.155,16.397c0.323,0.854,1.226,1.424,2.152,1.424h16.154
			c0.979,0,1.833-0.612,2.127-1.531l4.18-13.087C36.061,5.836,35.975,5.314,35.68,4.919z"/>
	</g>
</g>
</svg>
