<?xml version="1.0" encoding="utf-8"?>
<!-- Generator: Adobe Illustrator 16.0.0, SVG Export Plug-In . SVG Version: 6.00 Build 0)  -->
<!DOCTYPE svg PUBLIC "-//W3C//DTD SVG 1.1//EN" "http://www.w3.org/Graphics/SVG/1.1/DTD/svg11.dtd">
<svg version="1.1" id="Shape_5_1_" xmlns="http://www.w3.org/2000/svg" xmlns:xlink="http://www.w3.org/1999/xlink" x="0px" y="0px"
	 width="20px" height="19px" viewBox="0 0 20 19" enable-background="new 0 0 20 19" xml:space="preserve">
<g id="Shape_5">
	<g>
		<path fill-rule="evenodd" clip-rule="evenodd" fill="#FFFFFF" d="M8.75,15.199H7.5c-0.69,0-1.25,0.567-1.25,1.267v1.268
			C6.25,18.433,6.809,19,7.5,19h1.25C9.44,19,10,18.433,10,17.733v-1.268C10,15.767,9.44,15.199,8.75,15.199z M16.249,15.199H15
			c-0.69,0-1.25,0.567-1.25,1.267v1.268C13.75,18.433,14.31,19,15,19h1.249c0.69,0,1.251-0.567,1.251-1.267v-1.268
			C17.5,15.767,16.939,15.199,16.249,15.199z M4.772,3.8L3.366-0.001H0v2.533h1.634l1.661,4.489l1.468,5.951
			c0.139,0.564,0.639,0.96,1.213,0.96h10.548c0.574,0,1.073-0.396,1.213-0.96L19.999,3.8H4.772z"/>
	</g>
</g>
</svg>
