<?xml version="1.0" encoding="utf-8"?>
<!-- Generator: Adobe Illustrator 16.0.0, SVG Export Plug-In . SVG Version: 6.00 Build 0)  -->
<!DOCTYPE svg PUBLIC "-//W3C//DTD SVG 1.1//EN" "http://www.w3.org/Graphics/SVG/1.1/DTD/svg11.dtd">
<svg version="1.1" id="team-1_1_" xmlns="http://www.w3.org/2000/svg" xmlns:xlink="http://www.w3.org/1999/xlink" x="0px" y="0px"
	 width="43px" height="42px" viewBox="0 0 43 42" enable-background="new 0 0 43 42" xml:space="preserve">
<g id="team-1">
	<g>
		<path fill-rule="evenodd" clip-rule="evenodd" fill="#2FE08F" d="M38.497,22.408c1.613-0.827,2.734-2.525,2.734-4.503
			c0-2.783-2.199-5.046-4.903-5.046c-2.703,0-4.903,2.263-4.903,5.046c0,1.978,1.122,3.676,2.735,4.503
			c-2.018,0.705-3.603,2.359-4.228,4.44c-0.999-3.015-3.174-5.35-5.873-6.245c2.231-0.98,3.799-3.259,3.799-5.91
			c0-3.542-2.799-6.423-6.24-6.423c-3.441,0-6.24,2.882-6.24,6.423c0,2.65,1.568,4.93,3.799,5.91
			c-2.699,0.895-4.873,3.229-5.873,6.244c-0.625-2.081-2.209-3.734-4.227-4.439c1.613-0.827,2.735-2.525,2.735-4.503
			c0-2.783-2.2-5.046-4.903-5.046s-4.903,2.263-4.903,5.046c0,1.978,1.122,3.675,2.735,4.502c-2.625,0.918-4.518,3.443-4.518,6.417
			v1.467c0,0.507,0.398,0.918,0.891,0.918h11.589v0.917c0,0.507,0.399,0.917,0.892,0.917h16.048c0.492,0,0.891-0.41,0.891-0.917
			v-0.917h11.59c0.492,0,0.892-0.411,0.892-0.918v-1.467C43.015,25.851,41.121,23.325,38.497,22.408z M3.789,17.905
			c0-1.771,1.4-3.211,3.12-3.211s3.12,1.441,3.12,3.211c0,1.771-1.4,3.211-3.12,3.211S3.789,19.676,3.789,17.905z M11.812,29.373
			H2.005v-0.549c0-2.733,2.2-4.955,4.903-4.955s4.903,2.222,4.903,4.955V29.373z M17.161,14.694c0-2.529,2-4.586,4.457-4.586
			c2.458,0,4.458,2.057,4.458,4.586s-2,4.587-4.458,4.587C19.161,19.281,17.161,17.223,17.161,14.694z M28.751,31.209H14.486v-0.654
			c0-4.699,3.2-8.521,7.132-8.521c3.933,0,7.133,3.821,7.133,8.521V31.209z M33.208,17.905c0-1.771,1.399-3.211,3.12-3.211
			s3.12,1.441,3.12,3.211c0,1.771-1.399,3.211-3.12,3.211S33.208,19.676,33.208,17.905z M41.231,29.373h-9.807v-0.549
			c0-2.733,2.2-4.955,4.903-4.955c2.704,0,4.903,2.222,4.903,4.955V29.373z"/>
	</g>
</g>
</svg>
