<?xml version="1.0" encoding="utf-8"?>
<!-- Generator: Adobe Illustrator 16.0.0, SVG Export Plug-In . SVG Version: 6.00 Build 0)  -->
<!DOCTYPE svg PUBLIC "-//W3C//DTD SVG 1.1//EN" "http://www.w3.org/Graphics/SVG/1.1/DTD/svg11.dtd">
<svg version="1.1" id="Shape_10_1_" xmlns="http://www.w3.org/2000/svg" xmlns:xlink="http://www.w3.org/1999/xlink" x="0px"
	 y="0px" width="34px" height="37px" viewBox="0 0 34 37" enable-background="new 0 0 34 37" xml:space="preserve">
<g id="Shape_10">
	<g>
		<path fill-rule="evenodd" clip-rule="evenodd" fill="#2FE08F" d="M15.286,14.914c4.086,0,7.41-3.346,7.41-7.457
			c0-4.112-3.324-7.458-7.41-7.458c-4.087,0-7.411,3.346-7.411,7.458C7.875,11.568,11.199,14.914,15.286,14.914z M15.286,2.676
			c2.628,0,4.766,2.151,4.766,4.796s-2.138,4.796-4.766,4.796s-4.767-2.151-4.767-4.796S12.658,2.676,15.286,2.676z M14.996,29.913
			H4.966c-0.14,0-0.245-0.023-0.317-0.049l0.072-3.874c0-4.062,4.548-7.125,10.58-7.125c6.032,0,10.58,3.069,10.58,7.146
			l0.016,1.079c0.022,0.73,0.604,1.303,1.322,1.303h0.027c0.736-0.022,1.316-0.632,1.295-1.352l-0.015-1.051
			c0-5.579-5.686-9.786-13.226-9.786c-7.54,0-13.225,4.2-13.225,9.763L2,30.097c-0.019,0.574,0.213,1.149,0.633,1.571
			c0.555,0.576,1.405,0.906,2.333,0.906h10.03c0.729,0,1.323-0.597,1.323-1.331C16.319,30.51,15.726,29.913,14.996,29.913z
			 M31.693,29.913h-9.728l2.139-2.152c0.5-0.525,0.5-1.347,0-1.872l-0.012-0.012c-0.254-0.245-0.586-0.379-0.936-0.379
			c-0.354,0-0.685,0.137-0.931,0.385l-4.068,4.094c-0.685,0.708-0.683,1.847,0.004,2.538l4.059,4.084
			c0.236,0.256,0.576,0.402,0.935,0.402c0.345,0,0.675-0.142,0.935-0.403c0.501-0.526,0.499-1.369-0.007-1.878l-2.132-2.146h9.728
			c0.729,0,1.322-0.597,1.322-1.331C33.001,30.51,32.414,29.913,31.693,29.913z"/>
	</g>
</g>
</svg>
