<?xml version="1.0" encoding="utf-8"?>
<!-- Generator: Adobe Illustrator 16.0.0, SVG Export Plug-In . SVG Version: 6.00 Build 0)  -->
<!DOCTYPE svg PUBLIC "-//W3C//DTD SVG 1.1//EN" "http://www.w3.org/Graphics/SVG/1.1/DTD/svg11.dtd">
<svg version="1.1" id="ointment_1_" xmlns="http://www.w3.org/2000/svg" xmlns:xlink="http://www.w3.org/1999/xlink" x="0px"
	 y="0px" width="43px" height="42px" viewBox="0 0 43 42" enable-background="new 0 0 43 42" xml:space="preserve">
<g id="ointment">
	<g>
		<path fill-rule="evenodd" clip-rule="evenodd" fill="#2FE08F" d="M41.407,35.896l-3.629-3.645l-1.227-6.827
			c-0.004-0.021-0.018-0.038-0.023-0.06c-0.014-0.055-0.036-0.104-0.061-0.155c-0.024-0.05-0.049-0.097-0.082-0.14
			c-0.012-0.016-0.016-0.034-0.028-0.049L15.672,1.454c-0.152-0.172-0.367-0.274-0.597-0.281c-0.213-0.018-0.45,0.08-0.612,0.243
			L2.099,13.84c-0.162,0.162-0.25,0.384-0.242,0.614c0.007,0.23,0.108,0.446,0.28,0.599l23.458,20.78
			c0.016,0.014,0.036,0.019,0.053,0.031c0.038,0.03,0.08,0.052,0.123,0.074c0.053,0.026,0.104,0.049,0.158,0.063
			c0.023,0.006,0.042,0.021,0.066,0.026l6.796,1.23l3.63,3.646c0.162,0.163,0.374,0.244,0.585,0.244
			c0.213,0,0.426-0.081,0.588-0.244l3.813-3.831c0.154-0.155,0.243-0.366,0.243-0.589C41.65,36.264,41.562,36.053,41.407,35.896z
			 M36.115,32.375l-3.201,3.213l-5.063-0.917l7.351-7.385L36.115,32.375z M26.107,34.066L9.054,18.959L19.562,8.404L34.6,25.536
			L26.107,34.066z M15.012,3.221l3.451,3.932L7.809,17.855L3.896,14.39L15.012,3.221z M37.007,39.139l-2.642-2.654l2.643-2.652
			l2.641,2.652L37.007,39.139z"/>
	</g>
</g>
</svg>
