<?xml version="1.0" encoding="utf-8"?>
<!-- Generator: Adobe Illustrator 16.0.0, SVG Export Plug-In . SVG Version: 6.00 Build 0)  -->
<!DOCTYPE svg PUBLIC "-//W3C//DTD SVG 1.1//EN" "http://www.w3.org/Graphics/SVG/1.1/DTD/svg11.dtd">
<svg version="1.1" id="Layer_1" xmlns="http://www.w3.org/2000/svg" xmlns:xlink="http://www.w3.org/1999/xlink" x="0px" y="0px"
	 width="60px" height="20px" viewBox="0 0 60 20" enable-background="new 0 0 60 20" xml:space="preserve">
<path fill="#121212" d="M58,13.5c-1.25,0-2.45-0.2-3.57-0.57c-0.35-0.109-0.74-0.029-1.02,0.24l-2.2,2.2
	c-2.83-1.44-5.149-3.75-6.59-6.59l2.2-2.21c0.279-0.26,0.359-0.65,0.25-1C46.7,4.45,46.5,3.25,46.5,2c0-0.55-0.45-1-1-1H42
	c-0.55,0-1,0.45-1,1c0,9.391,7.609,17,17,17c0.55,0,1-0.45,1-1v-3.5C59,13.95,58.55,13.5,58,13.5z M57,10h2c0-4.97-4.029-9-9-9v2
	C53.87,3,57,6.13,57,10z M53,10h2c0-2.76-2.24-5-5-5v2C51.66,7,53,8.34,53,10z"/>
<path fill="#121212" d="M17.2,2.8H2.8c-0.989,0-1.791,0.81-1.791,1.8L1,15.398c0,0.99,0.811,1.802,1.8,1.802h14.4
	c0.989,0,1.8-0.812,1.8-1.802V4.6C19,3.61,18.189,2.8,17.2,2.8z M17.2,6.4L10,10.9L2.8,6.4V4.6L10,9.1l7.2-4.5V6.4z"/>
<path fill="#121212" d="M30,6.727c-1.809,0-3.271,1.465-3.271,3.273c0,1.809,1.463,3.273,3.271,3.273s3.271-1.465,3.271-3.273
	C33.271,8.192,31.809,6.727,30,6.727z M37.314,9.182c-0.377-3.412-3.086-6.12-6.496-6.496V1h-1.637v1.686
	c-3.412,0.375-6.121,3.084-6.496,6.496H21v1.636h1.686c0.377,3.412,3.086,6.121,6.496,6.496V19h1.637v-1.686
	c3.412-0.377,6.121-3.084,6.496-6.496H39V9.182H37.314z M30,15.729c-3.166,0-5.729-2.563-5.729-5.729
	c0-3.167,2.563-5.727,5.729-5.727s5.729,2.56,5.729,5.727C35.729,13.166,33.166,15.729,30,15.729z"/>
</svg>
