<?xml version="1.0" encoding="utf-8"?>
<!-- Generator: Adobe Illustrator 16.0.0, SVG Export Plug-In . SVG Version: 6.00 Build 0)  -->
<!DOCTYPE svg PUBLIC "-//W3C//DTD SVG 1.1//EN" "http://www.w3.org/Graphics/SVG/1.1/DTD/svg11.dtd">
<svg version="1.1" id="user-male_1_" xmlns="http://www.w3.org/2000/svg" xmlns:xlink="http://www.w3.org/1999/xlink" x="0px"
	 y="0px" width="28px" height="28px" viewBox="0 0 28 28" enable-background="new 0 0 28 28" xml:space="preserve">
<g id="user-male">
	<g>
		<path fill-rule="evenodd" clip-rule="evenodd" fill="#FFFFFF" d="M27.544,23.73l-8.565-4.671c2.868-3.104,2.9-7.491,2.9-7.694
			l-0.004-5.246c0-0.049-0.004-0.098-0.013-0.146c-0.604-3.575-4.551-5.975-7.858-5.975H14c-3.31,0-7.259,2.402-7.862,5.978
			C6.131,6.023,6.126,6.072,6.126,6.12l-0.005,5.246c0,0.203,0.031,4.592,2.9,7.694l-8.566,4.671C0.175,23.886,0,24.181,0,24.5v1.75
			c0,0.965,0.785,1.749,1.75,1.749h24.5c0.965,0,1.75-0.784,1.75-1.749v-1.752C28,24.179,27.825,23.884,27.544,23.73z M26.248,26.25
			H1.75v-1.23l9.169-5.001c0.256-0.14,0.426-0.397,0.453-0.688c0.026-0.29-0.094-0.574-0.321-0.759
			c-3.131-2.539-3.179-7.158-3.179-7.203l0.005-5.169C8.367,3.573,11.48,1.749,14,1.747c2.52,0,5.633,1.824,6.125,4.449l0.004,5.17
			c0,0.046-0.032,4.651-3.18,7.203c-0.227,0.185-0.348,0.469-0.32,0.76c0.026,0.29,0.195,0.548,0.451,0.688l9.17,5.002L26.248,26.25
			z"/>
	</g>
</g>
</svg>
