<?xml version="1.0" encoding="utf-8"?>
<!-- Generator: Adobe Illustrator 16.0.0, SVG Export Plug-In . SVG Version: 6.00 Build 0)  -->
<!DOCTYPE svg PUBLIC "-//W3C//DTD SVG 1.1//EN" "http://www.w3.org/Graphics/SVG/1.1/DTD/svg11.dtd">
<svg version="1.1" id="Shape_3_1_" xmlns="http://www.w3.org/2000/svg" xmlns:xlink="http://www.w3.org/1999/xlink" x="0px" y="0px"
	 width="34.083px" height="40px" viewBox="0 0 34.083 40" enable-background="new 0 0 34.083 40" xml:space="preserve">
<g id="Shape_3">
	<g>
		<path fill-rule="evenodd" clip-rule="evenodd" fill="#212121" d="M7.504,10.857c-2.701,1.098-4.002,4.19-2.901,6.896
			s4.195,4.014,6.896,2.916c2.701-1.097,4.002-4.19,2.901-6.896S10.206,9.761,7.504,10.857z M8.391,13.035
			c1.238-0.503,2.624-0.097,3.416,0.903l-5.231,2.125C6.444,14.795,7.153,13.538,8.391,13.035z M10.612,18.491
			c-1.238,0.503-2.624,0.097-3.416-0.903l5.231-2.125C12.559,16.731,11.851,17.989,10.612,18.491z M34.007,10.259l-3.885-9.543
			c-0.154-0.377-0.492-0.648-0.893-0.717c-0.401-0.068-0.809,0.076-1.077,0.382l-2.198,2.504C25.59,3.3,25.091,3.583,24.548,3.684
			c0,0-12.294,2.087-16.42,2.754C7.42,6.552,6.643,6.76,5.951,7.04c-4.803,1.951-7.117,7.451-5.159,12.261
			c1.218,2.992,3.807,5.022,6.746,5.66l3.67,9.015c0.733,1.801,2.563,2.832,4.404,2.637l1.082,2.657
			c0.245,0.602,0.93,0.892,1.53,0.647c0.602-0.244,0.889-0.93,0.645-1.53l-1.082-2.657c1.455-1.144,2.046-3.158,1.313-4.959
			l-3.269-8.03l12.123-10.567c0.495-0.403,1.117-0.598,1.754-0.547l3.123,0.245c0.406,0.032,0.799-0.148,1.039-0.478
			C34.108,11.065,34.16,10.636,34.007,10.259z M16.422,30.42l0.502,1.233c0.398,0.979-0.072,2.097-1.049,2.494
			c-0.977,0.396-2.095-0.076-2.494-1.055l-3.232-7.939c0.973-0.064,1.952-0.28,2.903-0.667c0.276-0.112,0.543-0.237,0.802-0.372
			l0.817,2.006l-0.819,0.332c-0.42,0.171-0.622,0.65-0.451,1.071s0.651,0.624,1.071,0.453l0.819-0.332l0.51,1.252l-0.819,0.332
			c-0.42,0.171-0.622,0.65-0.451,1.071s0.651,0.623,1.071,0.453L16.422,30.42z M12.167,22.309c-3.604,1.464-7.731-0.281-9.201-3.891
			c-1.47-3.609,0.267-7.736,3.871-9.2s7.731,0.281,9.201,3.891C17.507,16.718,15.771,20.845,12.167,22.309z M29.886,9.283
			c-1.248-0.098-2.469,0.286-3.435,1.081c-0.007,0.005-0.013,0.011-0.02,0.016l-7.595,6.528c0.188-1.539,0-3.146-0.625-4.683
			c-0.783-1.923-2.133-3.447-3.777-4.462l10.513-1.765c0.006-0.001,0.011-0.001,0.016-0.002c1.063-0.193,2.042-0.747,2.756-1.56
			l0.945-1.077l2.45,6.02L29.886,9.283z"/>
	</g>
</g>
</svg>
