<?xml version="1.0" encoding="utf-8"?>
<!-- Generator: Adobe Illustrator 16.0.0, SVG Export Plug-In . SVG Version: 6.00 Build 0)  -->
<!DOCTYPE svg PUBLIC "-//W3C//DTD SVG 1.1//EN" "http://www.w3.org/Graphics/SVG/1.1/DTD/svg11.dtd">
<svg version="1.1" id="Search_1_" xmlns="http://www.w3.org/2000/svg" xmlns:xlink="http://www.w3.org/1999/xlink" x="0px" y="0px"
	 width="32px" height="32px" viewBox="0 0 32 32" enable-background="new 0 0 32 32" xml:space="preserve">
<g id="Search">
	<g>
		<path fill-rule="evenodd" clip-rule="evenodd" fill="#212121" d="M31.714,30.364l-8.88-8.88C24.802,19.205,26,16.243,26,12.996
			c0-7.18-5.82-12.999-13-12.999c-7.18,0-13,5.819-13,12.999c0,7.181,5.82,13.001,13,13.001c3.248,0,6.208-1.198,8.487-3.167
			l8.881,8.881c0.372,0.371,0.975,0.371,1.347,0C32.086,31.339,32.086,30.736,31.714,30.364z M13,23.997
			c-6.075,0-11-4.925-11-11.001C2,6.922,6.925,1.997,13,1.997s11,4.925,11,10.999C24,19.072,19.074,23.997,13,23.997z"/>
	</g>
</g>
</svg>
