<?xml version="1.0" encoding="utf-8"?>
<!-- Generator: Adobe Illustrator 16.0.0, SVG Export Plug-In . SVG Version: 6.00 Build 0)  -->
<!DOCTYPE svg PUBLIC "-//W3C//DTD SVG 1.1//EN" "http://www.w3.org/Graphics/SVG/1.1/DTD/svg11.dtd">
<svg version="1.1" id="search_1_" xmlns="http://www.w3.org/2000/svg" xmlns:xlink="http://www.w3.org/1999/xlink" x="0px" y="0px"
	 width="28px" height="28px" viewBox="0 0 28 28" enable-background="new 0 0 28 28" xml:space="preserve">
<g id="search">
	<g>
		<path fill-rule="evenodd" clip-rule="evenodd" fill="#FFFFFF" d="M27.361,25.51l-7.055-7.03c1.53-1.906,2.446-4.326,2.446-6.958
			c0-6.157-5.01-11.148-11.189-11.148c-6.18,0-11.189,4.991-11.189,11.148c0,6.158,5.009,11.148,11.189,11.148
			c2.642,0,5.07-0.911,6.985-2.438l7.055,7.03c0.242,0.241,0.561,0.363,0.88,0.363c0.317,0,0.637-0.122,0.878-0.363
			C27.848,26.778,27.848,25.994,27.361,25.51z M11.564,20.192c-4.806,0-8.703-3.883-8.703-8.671c0-4.789,3.896-8.671,8.703-8.671
			s8.703,3.882,8.703,8.671C20.267,16.31,16.37,20.192,11.564,20.192z"/>
	</g>
</g>
</svg>
