<?xml version="1.0" encoding="utf-8"?>
<!-- Generator: Adobe Illustrator 16.0.0, SVG Export Plug-In . SVG Version: 6.00 Build 0)  -->
<!DOCTYPE svg PUBLIC "-//W3C//DTD SVG 1.1//EN" "http://www.w3.org/Graphics/SVG/1.1/DTD/svg11.dtd">
<svg version="1.1" id="Linked_In_1_" xmlns="http://www.w3.org/2000/svg" xmlns:xlink="http://www.w3.org/1999/xlink" x="0px"
	 y="0px" width="32px" height="29px" viewBox="0 0 32 29" enable-background="new 0 0 32 29" xml:space="preserve">
<g id="Linked_In">
	<g>
		<path fill-rule="evenodd" clip-rule="evenodd" fill="#212121" d="M28.775,0.62H3.238c-1.223,0-2.214,0.879-2.214,1.962v23.464
			c0,1.085,0.992,1.964,2.214,1.964h25.537c1.224,0,2.215-0.879,2.215-1.964V2.582C30.99,1.499,29.999,0.62,28.775,0.62z
			 M10.63,23.498H6.217V11.132h4.413V23.498z M8.424,9.444H8.395c-1.48,0-2.438-0.95-2.438-2.138c0-1.213,0.986-2.136,2.497-2.136
			c1.509,0,2.439,0.923,2.467,2.136C10.92,8.494,9.962,9.444,8.424,9.444z M26.543,23.498h-4.412v-6.614
			c0-1.662-0.64-2.797-2.236-2.797c-1.219,0-1.946,0.765-2.264,1.504c-0.117,0.263-0.145,0.634-0.145,1.002v6.905h-4.415
			c0,0,0.058-11.205,0-12.366h4.415v1.751c0.587-0.843,1.633-2.042,3.977-2.042c2.902,0,5.08,1.767,5.08,5.567V23.498z
			 M17.486,12.925v-0.042c-0.01,0.013-0.021,0.028-0.03,0.042H17.486z"/>
	</g>
</g>
</svg>
