<?xml version="1.0" encoding="utf-8"?>
<!-- Generator: Adobe Illustrator 16.0.0, SVG Export Plug-In . SVG Version: 6.00 Build 0)  -->
<!DOCTYPE svg PUBLIC "-//W3C//DTD SVG 1.1//EN" "http://www.w3.org/Graphics/SVG/1.1/DTD/svg11.dtd">
<svg version="1.1" id="Shape_11_1_" xmlns="http://www.w3.org/2000/svg" xmlns:xlink="http://www.w3.org/1999/xlink" x="0px"
	 y="0px" width="34px" height="37px" viewBox="0 0 34 37" enable-background="new 0 0 34 37" xml:space="preserve">
<g id="Shape_11">
	<g>
		<path fill-rule="evenodd" clip-rule="evenodd" fill="#212121" d="M17.516,17.095c4.156,0,7.539-3.386,7.539-7.548
			c0-4.161-3.383-7.548-7.539-7.548c-4.157,0-7.539,3.387-7.539,7.548C9.977,13.709,13.358,17.095,17.516,17.095z M17.516,4.709
			c2.673,0,4.849,2.178,4.849,4.854c0,2.677-2.176,4.854-4.849,4.854c-2.674,0-4.849-2.178-4.849-4.854
			C12.667,6.887,14.842,4.709,17.516,4.709z M30.984,28.305c0-5.646-5.783-9.904-13.453-9.904c-7.67,0-13.454,4.252-13.454,9.881
			L4,32.461c-0.02,0.582,0.217,1.163,0.644,1.591c0.564,0.583,1.43,0.917,2.374,0.917h21.858c0.109,0,0.206-0.038,0.308-0.063
			C29.33,34.962,29.487,35,29.655,35h0.028c0.748-0.022,1.339-0.64,1.316-1.368L30.984,28.305z M7.017,32.275
			c-0.143,0-0.249-0.024-0.323-0.05l0.073-3.921c0-4.11,4.627-7.211,10.764-7.211c6.136,0,10.763,3.107,10.763,7.232l0.012,3.949
			H7.017z"/>
	</g>
</g>
</svg>
