<?xml version="1.0" encoding="utf-8"?>
<!-- Generator: Adobe Illustrator 16.0.0, SVG Export Plug-In . SVG Version: 6.00 Build 0)  -->
<!DOCTYPE svg PUBLIC "-//W3C//DTD SVG 1.1//EN" "http://www.w3.org/Graphics/SVG/1.1/DTD/svg11.dtd">
<svg version="1.1" id="Shape_6_1_" xmlns="http://www.w3.org/2000/svg" xmlns:xlink="http://www.w3.org/1999/xlink" x="0px" y="0px"
	 width="38px" height="26px" viewBox="0 0 38 26" enable-background="new 0 0 38 26" xml:space="preserve">
<g id="Shape_6">
	<g>
		<path fill-rule="evenodd" clip-rule="evenodd" fill="#2FE08F" d="M36.771,17.383H30.58c-0.088-0.277-0.175-0.555-0.262-0.832
			c-0.432-1.384-0.867-2.772-1.3-4.157c-0.522-1.671-1.046-3.338-1.567-5.009c-0.453-1.45-0.906-2.9-1.363-4.351
			c-0.222-0.704-0.424-1.413-0.662-2.113c-0.004-0.008-0.004-0.021-0.008-0.028c-0.156-0.5-0.639-0.926-1.189-0.901
			c-0.539,0.024-1.045,0.364-1.189,0.901c-0.21,0.786-0.42,1.572-0.629,2.359c-0.498,1.876-0.996,3.752-1.494,5.623
			c-0.602,2.266-1.202,4.53-1.803,6.796c-0.463,1.732-0.922,3.468-1.384,5.2c-0.181-0.451-0.361-0.904-0.542-1.354
			c-0.563-1.413-1.131-2.826-1.695-4.239c-0.486-1.217-0.975-2.433-1.461-3.649c-0.239-0.594-0.469-1.184-0.712-1.777
			c-0.004-0.009-0.008-0.017-0.008-0.025c-0.185-0.467-0.498-0.811-1.024-0.88c-0.457-0.062-1.013,0.151-1.23,0.585
			c-0.474,0.951-0.947,1.905-1.424,2.855c-0.757,1.516-1.51,3.035-2.267,4.551c-0.072,0.145-0.144,0.289-0.215,0.434h-5.92
			c-0.646,0-1.264,0.565-1.235,1.229c0.021,0.675,0.535,1.236,1.227,1.236h6.683c0.412,0,0.876-0.229,1.066-0.61
			c0.473-0.95,0.946-1.904,1.424-2.854c0.535-1.07,1.068-2.143,1.602-3.214c0.301,0.754,0.603,1.508,0.904,2.259
			c0.564,1.414,1.132,2.827,1.696,4.24c0.485,1.216,0.975,2.433,1.461,3.649c0.239,0.594,0.469,1.184,0.712,1.777
			c0.004,0.008,0.008,0.017,0.008,0.024c0.103,0.259,0.214,0.463,0.444,0.64c0.21,0.159,0.477,0.273,0.749,0.262
			c0.539-0.024,1.044-0.364,1.189-0.901c0.21-0.786,0.42-1.572,0.63-2.359c0.498-1.876,0.996-3.752,1.493-5.623
			c0.602-2.266,1.207-4.53,1.807-6.796c0.415-1.553,0.827-3.108,1.241-4.662c0.185,0.59,0.37,1.181,0.554,1.771
			c0.522,1.671,1.045,3.339,1.568,5.01c0.452,1.45,0.904,2.899,1.361,4.35c0.223,0.704,0.424,1.413,0.662,2.113
			c0.005,0.009,0.005,0.021,0.009,0.029c0.161,0.52,0.634,0.9,1.189,0.9h7.099c0.646,0,1.264-0.565,1.234-1.229
			C37.978,17.943,37.463,17.383,36.771,17.383z"/>
	</g>
</g>
</svg>
