<?xml version="1.0" encoding="utf-8"?>
<!-- Generator: Adobe Illustrator 16.0.0, SVG Export Plug-In . SVG Version: 6.00 Build 0)  -->
<!DOCTYPE svg PUBLIC "-//W3C//DTD SVG 1.1//EN" "http://www.w3.org/Graphics/SVG/1.1/DTD/svg11.dtd">
<svg version="1.1" id="Pin_1_" xmlns="http://www.w3.org/2000/svg" xmlns:xlink="http://www.w3.org/1999/xlink" x="0px" y="0px"
	 width="27px" height="36px" viewBox="0 0 27 36" enable-background="new 0 0 27 36" xml:space="preserve">
<g id="Pin">
	<g>
		<path fill-rule="evenodd" clip-rule="evenodd" fill="#212121" d="M13.5,7.875c-3.107,0-5.625,2.518-5.625,5.625
			c0,3.106,2.518,5.625,5.625,5.625c3.106,0,5.625-2.519,5.625-5.625C19.125,10.393,16.606,7.875,13.5,7.875z M13.5,15.75
			c-1.241,0-2.25-1.01-2.25-2.25s1.009-2.25,2.25-2.25s2.25,1.01,2.25,2.25S14.741,15.75,13.5,15.75z M13.5,0
			C6.044,0,0,6.046,0,13.5c0,2.697,0.792,5.21,2.155,7.319l8.981,13.893C11.637,35.486,12.509,36,13.5,36s1.862-0.514,2.363-1.288
			l8.982-13.893C26.208,18.71,27,16.197,27,13.5C27,6.046,20.956,0,13.5,0z M22.011,18.986L13.5,32.152L4.989,18.987
			c-1.056-1.635-1.614-3.532-1.614-5.487c0-5.583,4.542-10.125,10.125-10.125c5.582,0,10.125,4.542,10.125,10.125
			C23.625,15.455,23.066,17.353,22.011,18.986z"/>
	</g>
</g>
</svg>
