<?xml version="1.0" encoding="utf-8"?>
<!-- Generator: Adobe Illustrator 16.0.0, SVG Export Plug-In . SVG Version: 6.00 Build 0)  -->
<!DOCTYPE svg PUBLIC "-//W3C//DTD SVG 1.1//EN" "http://www.w3.org/Graphics/SVG/1.1/DTD/svg11.dtd">
<svg version="1.1" id="phone-message-3_1_" xmlns="http://www.w3.org/2000/svg" xmlns:xlink="http://www.w3.org/1999/xlink" x="0px"
	 y="0px" width="43px" height="42px" viewBox="0 0 43 42" enable-background="new 0 0 43 42" xml:space="preserve">
<g id="phone-message-3">
	<g>
		<path fill-rule="evenodd" clip-rule="evenodd" fill="#2FE08F" d="M24.534,30.414c-0.464,0-0.84,0.376-0.84,0.84v7.502
			c0,0.957-0.775,1.735-1.729,1.735H6.949c-0.954,0-1.729-0.778-1.729-1.735V5.276c0-0.957,0.775-1.734,1.729-1.734h15.017
			c0.953,0,1.729,0.777,1.729,1.734v4.983c0,0.463,0.376,0.84,0.84,0.84s0.84-0.377,0.84-0.84V5.276
			c0-1.883-1.529-3.414-3.408-3.414H6.949c-1.879,0-3.408,1.531-3.408,3.414v33.479c0,1.883,1.529,3.415,3.408,3.415h15.017
			c1.879,0,3.408-1.532,3.408-3.415v-7.502C25.374,30.79,24.998,30.414,24.534,30.414z M17.788,6.061c0-0.464-0.376-0.84-0.84-0.84
			H11.91c-0.463,0-0.839,0.376-0.839,0.84c0,0.465,0.376,0.84,0.839,0.84h5.039C17.412,6.9,17.788,6.525,17.788,6.061z
			 M11.91,36.293c0,1.389,1.13,2.519,2.52,2.519s2.519-1.13,2.519-2.519c0-1.39-1.13-2.52-2.519-2.52S11.91,34.903,11.91,36.293z
			 M35.486,13.618H21.979c-1.833,0-3.324,1.491-3.324,3.324v14.312c0,0.357,0.225,0.675,0.562,0.793
			c0.091,0.031,0.185,0.047,0.278,0.047c0.25,0,0.493-0.112,0.656-0.315l3.106-3.884h12.229c1.833,0,3.324-1.49,3.324-3.322v-7.63
			C38.811,15.109,37.319,13.618,35.486,13.618z M37.131,24.572c0,0.905-0.738,1.644-1.645,1.644H22.854
			c-0.015,0-0.027,0.008-0.042,0.009c-0.063,0.003-0.12,0.02-0.18,0.036c-0.047,0.013-0.094,0.021-0.137,0.042
			c-0.048,0.022-0.088,0.057-0.131,0.088c-0.047,0.035-0.093,0.067-0.132,0.111c-0.01,0.011-0.024,0.017-0.034,0.028l-1.864,2.33
			V16.942c0-0.907,0.737-1.644,1.644-1.644h13.507c0.906,0,1.645,0.736,1.645,1.644V24.572z"/>
	</g>
</g>
</svg>
