<?xml version="1.0" encoding="utf-8"?>
<!-- Generator: Adobe Illustrator 16.0.0, SVG Export Plug-In . SVG Version: 6.00 Build 0)  -->
<!DOCTYPE svg PUBLIC "-//W3C//DTD SVG 1.1//EN" "http://www.w3.org/Graphics/SVG/1.1/DTD/svg11.dtd">
<svg version="1.1" id="arrow-2-right_1_" xmlns="http://www.w3.org/2000/svg" xmlns:xlink="http://www.w3.org/1999/xlink" x="0px"
	 y="0px" width="32px" height="18px" viewBox="0 0 32 18" enable-background="new 0 0 32 18" xml:space="preserve">
<g id="arrow-2-right">
	<g>
		<path fill-rule="evenodd" clip-rule="evenodd" fill="#212121" d="M31.82,9.381c0.042-0.101,0.057-0.207,0.063-0.313
			c0.002-0.023,0.014-0.044,0.014-0.067c0-0.021-0.011-0.04-0.013-0.061c-0.007-0.109-0.022-0.217-0.064-0.319
			c-0.047-0.114-0.117-0.215-0.201-0.303c-0.006-0.006-0.008-0.015-0.014-0.021l-7.978-7.962c-0.39-0.388-1.021-0.388-1.409,0
			c-0.391,0.39-0.391,1.02,0,1.408l6.274,6.263H0.986c-0.551,0-0.997,0.445-0.997,0.995c0,0.549,0.446,0.996,0.997,0.996h27.506
			l-6.273,6.261c-0.391,0.389-0.391,1.019,0,1.407c0.194,0.194,0.449,0.292,0.705,0.292c0.254,0,0.51-0.098,0.704-0.292l7.976-7.959
			C31.696,9.614,31.77,9.503,31.82,9.381z"/>
	</g>
</g>
</svg>
