<?xml version="1.0" encoding="utf-8"?>
<!-- Generator: Adobe Illustrator 16.0.0, SVG Export Plug-In . SVG Version: 6.00 Build 0)  -->
<!DOCTYPE svg PUBLIC "-//W3C//DTD SVG 1.1//EN" "http://www.w3.org/Graphics/SVG/1.1/DTD/svg11.dtd">
<svg version="1.1" id="cart-1_1_" xmlns="http://www.w3.org/2000/svg" xmlns:xlink="http://www.w3.org/1999/xlink" x="0px" y="0px"
	 width="28px" height="28px" viewBox="0 0 28 28" enable-background="new 0 0 28 28" xml:space="preserve">
<g id="cart-1">
	<g>
		<path fill-rule="evenodd" clip-rule="evenodd" fill="#FFFFFF" d="M27.809,8.222c-0.164-0.219-0.423-0.348-0.697-0.348H9.451
			L7.906,2.325C7.542,1.021,6.198-0.001,4.845-0.001H0.873c-0.483,0-0.875,0.393-0.875,0.875c0,0.483,0.391,0.875,0.875,0.875h3.972
			c0.568,0,1.224,0.499,1.377,1.047l1.652,5.934c0,0.007-0.004,0.013-0.004,0.02C7.87,8.909,7.925,9.051,8,9.18l3.357,12.055
			c0.006,0.021,0.02,0.037,0.027,0.057c0.014,0.04,0.033,0.075,0.052,0.112c0.031,0.059,0.066,0.112,0.108,0.161
			c0.026,0.03,0.051,0.058,0.081,0.084c0.052,0.046,0.108,0.082,0.169,0.114c0.031,0.017,0.06,0.036,0.093,0.05
			c0.099,0.037,0.202,0.063,0.311,0.063h0h0h11.46c0.392,0,0.735-0.261,0.843-0.638l3.452-12.25
			C28.028,8.724,27.975,8.439,27.809,8.222z M22.998,20.124H12.863l-2.924-10.5h16.018L22.998,20.124z M21.427,23.624
			c-1.206,0-2.187,0.981-2.187,2.188c0,1.205,0.98,2.188,2.187,2.188s2.187-0.982,2.187-2.188
			C23.613,24.605,22.633,23.624,21.427,23.624z M13.555,23.624c-1.206,0-2.187,0.981-2.187,2.188c0,1.205,0.98,2.188,2.187,2.188
			c1.207,0,2.187-0.982,2.187-2.188C15.742,24.605,14.762,23.624,13.555,23.624z"/>
	</g>
</g>
</svg>
