<?xml version="1.0" encoding="utf-8"?>
<!-- Generator: Adobe Illustrator 16.0.0, SVG Export Plug-In . SVG Version: 6.00 Build 0)  -->
<!DOCTYPE svg PUBLIC "-//W3C//DTD SVG 1.1//EN" "http://www.w3.org/Graphics/SVG/1.1/DTD/svg11.dtd">
<svg version="1.1" id="Shape_4_1_" xmlns="http://www.w3.org/2000/svg" xmlns:xlink="http://www.w3.org/1999/xlink" x="0px" y="0px"
	 width="32px" height="40px" viewBox="0 0 32 40" enable-background="new 0 0 32 40" xml:space="preserve">
<g id="Shape_4">
	<g>
		<path fill-rule="evenodd" clip-rule="evenodd" fill="#2FE08F" d="M16,6.938c-4.9,0-8.886,4.024-8.886,8.971
			c0,4.947,3.986,8.972,8.886,8.972c4.899,0,8.887-4.024,8.887-8.972C24.887,10.963,20.899,6.938,16,6.938z M16,22.478
			c-3.587,0-6.506-2.946-6.506-6.568c0-3.621,2.919-6.567,6.506-6.567c3.588,0,6.506,2.946,6.506,6.567
			C22.506,19.531,19.588,22.478,16,22.478z M30.992,20.827l-2.183-4.918l2.183-4.918l-4.629-2.684l-1.098-5.273L19.959,3.61
			L16.006,0h-0.011l-3.953,3.61L6.734,3.034L5.637,8.309l-4.629,2.683l2.183,4.918l-2.183,4.918l4.629,2.684l0.595,2.857
			l-4.941,10.6l5.157,0.068L8.94,40h1.314l4.389-9.415L16,31.824l1.357-1.239L21.746,40h1.313l2.493-2.964l5.157-0.068l-4.941-10.6
			l0.595-2.857L30.992,20.827z M9.207,36.604l-1.646-1.956l-2.543-0.034l2.771-5.943l4.253-0.462l0.756,0.691L9.207,36.604z
			 M26.982,34.614l-2.543,0.034l-1.646,1.956L19.201,28.9l0.758-0.691l4.252,0.462L26.982,34.614z M24.254,21.964l-0.875,4.2
			l-4.227-0.459L16,28.584l-3.153-2.879l-4.227,0.459l-0.874-4.2L4.06,19.826l1.738-3.917L4.06,11.993l3.687-2.137l0.874-4.2
			l4.227,0.458L16,3.235l3.152,2.879l4.227-0.458l0.875,4.2l3.686,2.137l-1.738,3.916l1.738,3.917L24.254,21.964z"/>
	</g>
</g>
</svg>
