<?xml version="1.0" encoding="utf-8"?>
<!-- Generator: Adobe Illustrator 16.0.0, SVG Export Plug-In . SVG Version: 6.00 Build 0)  -->
<!DOCTYPE svg PUBLIC "-//W3C//DTD SVG 1.1//EN" "http://www.w3.org/Graphics/SVG/1.1/DTD/svg11.dtd">
<svg version="1.1" id="Shape_2_1_" xmlns="http://www.w3.org/2000/svg" xmlns:xlink="http://www.w3.org/1999/xlink" x="0px" y="0px"
	 width="32px" height="32px" viewBox="0 0 32 32" enable-background="new 0 0 32 32" xml:space="preserve">
<g id="Shape_2">
	<g>
		<path fill="#212121" d="M16,1.999c-8.822,0-16,5.384-16,12c0,3.808,2.47,7.206,6.975,9.626c-0.218,2.598-1.767,4.764-1.783,4.786
			c-0.227,0.312-0.255,0.724-0.072,1.063c0.174,0.323,0.513,0.524,0.88,0.524c0.016,0,0.032,0,0.048-0.001
			c0.216-0.012,5.111-0.29,7.522-3.987c0.654-0.005,1.734-0.012,2.43-0.012c8.822,0,16-5.383,16-12C32,7.383,24.822,1.999,16,1.999z
			 M16,23.999c-1.062,0-3.008,0.017-3.008,0.017c-0.364,0.002-0.698,0.203-0.871,0.522c-0.973,1.795-2.79,2.665-4.201,3.084
			C8.463,26.434,9,24.811,9,23.029c0-0.379-0.214-0.725-0.553-0.894C6.039,20.934,2,18.273,2,13.999C2,8.485,8.28,4,16,4
			c7.721,0,14,4.485,14,9.999C30,19.514,23.721,23.999,16,23.999z"/>
	</g>
</g>
</svg>
