<?xml version="1.0" encoding="utf-8"?>
<!-- Generator: Adobe Illustrator 16.0.0, SVG Export Plug-In . SVG Version: 6.00 Build 0)  -->
<!DOCTYPE svg PUBLIC "-//W3C//DTD SVG 1.1//EN" "http://www.w3.org/Graphics/SVG/1.1/DTD/svg11.dtd">
<svg version="1.1" id="Shape_9_1_" xmlns="http://www.w3.org/2000/svg" xmlns:xlink="http://www.w3.org/1999/xlink" x="0px" y="0px"
	 width="34px" height="37px" viewBox="0 0 34 37" enable-background="new 0 0 34 37" xml:space="preserve">
<g id="Shape_9">
	<g>
		<path fill-rule="evenodd" clip-rule="evenodd" fill="#2FE08F" d="M17,1.416c-9.407,0-17,7.593-17,17c0,9.369,7.593,17,17,17
			c9.406,0,17-7.631,17-17C34,9.009,26.406,1.416,17,1.416z M27.427,17.66l-3.929,3.815l0.944,5.856
			c0.188,1.359-1.322,2.115-2.645,1.397l-4.836-2.531l-4.873,2.531c-1.247,0.756-2.833-0.265-2.569-1.813c0,0,0-0.038,0.982-5.478
			c-3.551-3.476-3.966-3.854-3.966-3.854c-0.151-0.189-0.604-0.643-0.604-1.322c0-0.869,0.604-1.549,1.586-1.7l5.478-0.793
			l2.418-4.949c0.34-0.68,0.944-1.096,1.587-1.096s1.247,0.416,1.587,1.134l2.455,4.873l5.402,0.869
			c0.982,0.15,1.625,0.831,1.625,1.7C28.069,16.791,27.842,17.207,27.427,17.66z"/>
	</g>
</g>
</svg>
