<?xml version="1.0" encoding="utf-8"?>
<!-- Generator: Adobe Illustrator 16.0.0, SVG Export Plug-In . SVG Version: 6.00 Build 0)  -->
<!DOCTYPE svg PUBLIC "-//W3C//DTD SVG 1.1//EN" "http://www.w3.org/Graphics/SVG/1.1/DTD/svg11.dtd">
<svg version="1.1" id="list-2_1_" xmlns="http://www.w3.org/2000/svg" xmlns:xlink="http://www.w3.org/1999/xlink" x="0px" y="0px"
	 width="32px" height="28px" viewBox="0 0 32 28" enable-background="new 0 0 32 28" xml:space="preserve">
<g id="list-2">
	<g>
		<path fill-rule="evenodd" clip-rule="evenodd" fill="#FFFFFF" d="M4.998,5.549h25.989c0.552,0,0.999-0.449,0.999-1.002
			c0-0.554-0.447-1.002-0.999-1.002H4.998c-0.552,0-1,0.448-1,1.002C3.998,5.1,4.446,5.549,4.998,5.549z M4.998,11.562h20.991
			c0.552,0,0.999-0.449,0.999-1.002c0-0.554-0.447-1.002-0.999-1.002H4.998c-0.552,0-1,0.448-1,1.002
			C3.998,11.112,4.446,11.562,4.998,11.562z M30.987,15.569H4.998c-0.552,0-1,0.449-1,1.003c0,0.553,0.448,1.002,1,1.002h25.989
			c0.552,0,0.999-0.449,0.999-1.002C31.986,16.019,31.539,15.569,30.987,15.569z M25.989,21.582H4.998c-0.552,0-1,0.448-1,1.003
			c0,0.553,0.448,1.002,1,1.002h20.991c0.552,0,0.999-0.449,0.999-1.002C26.988,22.03,26.541,21.582,25.989,21.582z M0,5.549h1.999
			V3.545H0V5.549z M0,11.562h1.999V9.558H0V11.562z M0,17.574h1.999v-2.005H0V17.574z M0,23.587h1.999v-2.005H0V23.587z"/>
	</g>
</g>
</svg>
