<?xml version="1.0" encoding="utf-8"?>
<!-- Generator: Adobe Illustrator 16.0.0, SVG Export Plug-In . SVG Version: 6.00 Build 0)  -->
<!DOCTYPE svg PUBLIC "-//W3C//DTD SVG 1.0//EN" "http://www.w3.org/TR/2001/REC-SVG-20010904/DTD/svg10.dtd">
<svg version="1.0" xmlns="http://www.w3.org/2000/svg" xmlns:xlink="http://www.w3.org/1999/xlink" x="0px" y="0px" width="300px"
	 height="39.551px" viewBox="0 0 300 39.551" enable-background="new 0 0 300 39.551" xml:space="preserve">
<g id="Layer_9">
</g>
<g id="Layer_3">
</g>
<g id="Layer_2">
</g>
<g id="Layer_4">
</g>
<g id="Layer_5">
</g>
<g id="Layer_6">
</g>
<g id="Layer_7">
</g>
<g id="Layer_8">
</g>
<g id="Layer_10">
</g>
<g id="Layer_11">
	<g>
		<polyline fill-rule="evenodd" clip-rule="evenodd" fill="#FFFFFF" points="76.587,17.964 67.829,17.964 67.829,8.331 
			64.486,8.331 64.486,30.802 67.829,30.802 67.829,20.982 76.587,20.982 76.587,30.802 79.931,30.802 79.931,8.331 76.587,8.331 
			76.587,17.964 		"/>
		<rect x="127.176" y="8.331" fill-rule="evenodd" clip-rule="evenodd" fill="#FFFFFF" width="3.344" height="22.471"/>
		<path fill-rule="evenodd" clip-rule="evenodd" fill="#FFFFFF" d="M102.169,8.331L94.142,30.8h3.544l1.696-5.025h8.374l1.711,5.025
			h3.528L104.97,8.331H102.169z M100.351,22.757l3.195-9.83h0.061l3.195,9.83H100.351z"/>
		<path fill-rule="evenodd" clip-rule="evenodd" fill="#FFFFFF" d="M161.959,14.603c-0.062-2.075-0.79-3.673-2.19-4.793
			c-1.161-0.986-2.663-1.479-4.503-1.479h-8.627v22.471h3.343v-9.604h4.282l4.57,9.604h3.972l-5.11-9.972
			C160.497,19.73,161.918,17.655,161.959,14.603z M149.982,18.18v-6.83h5.252c1.073,0,1.894,0.231,2.461,0.695
			c0.718,0.525,1.087,1.376,1.107,2.55c0,0.979-0.309,1.803-0.926,2.473c-0.627,0.722-1.569,1.093-2.823,1.112H149.982z"/>
		<path fill-rule="evenodd" clip-rule="evenodd" fill="#FFFFFF" d="M177.374,11.263v19.539h3.344v-9.604h9.187V18.18h-9.187v-5.148
			c0.078-0.838,0.784-1.497,1.656-1.497h-1.656v0h10.762V8.331h-11.062C178.759,8.331,177.415,9.638,177.374,11.263"/>
		<path fill-rule="evenodd" clip-rule="evenodd" fill="#FFFFFF" d="M219.818,12.183c-0.515-1.038-1.353-1.962-2.513-2.773
			c-1.172-0.822-2.634-1.244-4.39-1.264c-1.736,0.021-3.185,0.44-4.345,1.259c-1.181,0.809-2.039,1.73-2.573,2.764
			c-0.333,0.546-0.581,1.261-0.742,2.146c-0.151,0.886-0.228,2.636-0.228,5.251c0,2.568,0.076,4.305,0.228,5.209
			c0.08,0.482,0.183,0.885,0.303,1.203c0.132,0.309,0.277,0.631,0.439,0.971c0.534,1.037,1.393,1.951,2.573,2.742
			c1.16,0.822,2.608,1.254,4.345,1.295c1.756-0.041,3.218-0.473,4.39-1.295c1.16-0.791,1.997-1.705,2.512-2.742
			c0.374-0.545,0.631-1.27,0.772-2.174c0.13-0.904,0.197-2.641,0.197-5.209c0-2.609-0.067-4.356-0.197-5.24
			C220.448,13.442,220.191,12.728,219.818,12.183 M217.216,24.06c-0.162,0.783-0.46,1.416-0.896,1.9
			c-0.333,0.463-0.778,0.84-1.334,1.127c-0.588,0.34-1.28,0.51-2.079,0.51c-0.788,0-1.466-0.17-2.032-0.51
			c-0.577-0.287-1.041-0.664-1.396-1.127c-0.435-0.484-0.724-1.117-0.865-1.9c-0.161-0.781-0.242-2.279-0.242-4.494
			c0-2.213,0.081-3.722,0.242-4.525c0.142-0.762,0.431-1.384,0.865-1.869c0.354-0.463,0.818-0.849,1.396-1.159
			c0.566-0.298,1.244-0.458,2.032-0.478c0.799,0.021,1.491,0.18,2.079,0.478c0.556,0.31,1.001,0.696,1.334,1.159
			c0.436,0.485,0.733,1.107,0.896,1.869c0.152,0.804,0.228,2.312,0.228,4.525C217.443,21.78,217.368,23.278,217.216,24.06"/>
		<polyline fill-rule="evenodd" clip-rule="evenodd" fill="#FFFFFF" points="239.857,8.331 236.514,8.331 236.514,30.802 
			250.62,30.802 250.62,27.597 239.857,27.597 239.857,8.331 		"/>
		<rect x="265.53" y="8.331" fill-rule="evenodd" clip-rule="evenodd" fill="#FFFFFF" width="3.343" height="22.471"/>
		<path fill-rule="evenodd" clip-rule="evenodd" fill="#FFFFFF" d="M39.486,8.074l2.846-8.026l-16.227,0
			c-3.955-0.025-6.328,3.399-6.328,6.297l0.009,9.354L8.314,15.705V0.048h-8.3L0,39.503l8.314-0.035v-15.9l11.462,0.002l8.311,0.01
			c-1.375,0.07-4.911,0.529-8.311,2.557v13.318h8.538l0.004-15.873h5.708l2.808-7.881h-8.51l-0.01-6.248
			c0-1.531,1.208-1.378,1.208-1.378H39.486"/>
		<path fill-rule="evenodd" clip-rule="evenodd" fill="#FFFFFF" d="M299.804,14.326c-0.141-0.884-0.398-1.598-0.773-2.143
			c-0.513-1.038-1.351-1.962-2.511-2.773c-1.172-0.822-2.634-1.244-4.391-1.264c-1.735,0.021-3.184,0.44-4.345,1.259
			c-1.181,0.809-2.039,1.73-2.572,2.764c-0.334,0.546-0.582,1.261-0.742,2.146c-0.151,0.886-0.228,2.636-0.228,5.251
			c0,2.568,0.076,4.305,0.228,5.209c0.079,0.482,0.182,0.885,0.303,1.203c0.131,0.309,0.276,0.631,0.438,0.971
			c0.534,1.037,1.393,1.951,2.573,2.742c1.161,0.822,2.608,1.254,4.345,1.295c1.757-0.041,3.219-0.473,4.391-1.295
			c1.16-0.791,1.995-1.705,2.511-2.742c0.375-0.545,0.633-1.27,0.773-2.174c0.129-0.904,0.196-2.641,0.196-5.209
			C300,16.956,299.933,15.209,299.804,14.326 M296.429,24.06c-0.161,0.783-0.46,1.416-0.894,1.9
			c-0.334,0.463-0.779,0.84-1.336,1.127c-0.586,0.34-1.279,0.51-2.078,0.51c-0.789,0-1.467-0.17-2.033-0.51
			c-0.576-0.287-1.041-0.664-1.395-1.127c-0.436-0.484-0.724-1.117-0.866-1.9c-0.161-0.781-0.241-2.279-0.241-4.494
			c0-2.213,0.08-3.722,0.241-4.525c0.143-0.762,0.431-1.384,0.866-1.869c0.354-0.463,0.818-0.849,1.395-1.159
			c0.566-0.298,1.244-0.458,2.033-0.478c0.799,0.021,1.492,0.18,2.078,0.478c0.557,0.31,1.002,0.696,1.336,1.159
			c0.434,0.485,0.732,1.107,0.894,1.869c0.152,0.804,0.229,2.312,0.229,4.525C296.657,21.78,296.581,23.278,296.429,24.06"/>
	</g>
</g>
</svg>
