<?xml version="1.0" encoding="utf-8"?>
<!-- Generator: Adobe Illustrator 16.0.0, SVG Export Plug-In . SVG Version: 6.00 Build 0)  -->
<!DOCTYPE svg PUBLIC "-//W3C//DTD SVG 1.1//EN" "http://www.w3.org/Graphics/SVG/1.1/DTD/svg11.dtd">
<svg version="1.1" id="Layer_1" xmlns="http://www.w3.org/2000/svg" xmlns:xlink="http://www.w3.org/1999/xlink" x="0px" y="0px"
	 width="300px" height="102.275px" viewBox="0 0 300 102.275" enable-background="new 0 0 300 102.275" xml:space="preserve">
<g id="Layer_9">
</g>
<g id="Layer_3">
</g>
<g id="Layer_2">
</g>
<g id="Layer_4">
</g>
<g id="Layer_5">
</g>
<g id="Layer_6">
</g>
<g id="Layer_7">
</g>
<g id="Layer_8">
</g>
<g id="Layer_10">
</g>
<g>
	<path fill="#FFFFFF" d="M173.337,10.225L176.962,0h-20.67c-5.038-0.031-8.061,4.33-8.061,8.022l0.011,11.915l-14.613,0.007V0
		h-10.574l-0.017,50.259l10.591-0.045V29.961l14.599,0.003l10.588,0.012c-1.752,0.09-6.256,0.675-10.588,3.257v16.965h10.877
		l0.005-20.219h7.271l3.577-10.039h-10.84l-0.013-7.959c0-1.95,1.538-1.755,1.538-1.755L173.337,10.225"/>
	<g>
		<polyline fill="#FFFFFF" points="15.414,85.876 4.259,85.876 4.259,73.605 0,73.605 0,102.229 4.259,102.229 4.259,89.721 
			15.414,89.721 15.414,102.229 19.674,102.229 19.674,73.605 15.414,73.605 15.414,85.876 		"/>
		<rect x="79.854" y="73.605" fill="#FFFFFF" width="4.261" height="28.623"/>
		<path fill="#FFFFFF" d="M48,73.605l-10.224,28.621h4.515l2.16-6.4h10.667l2.18,6.4h4.494L51.569,73.605H48z M45.686,91.98
			l4.069-12.521h0.078l4.069,12.521H45.686z"/>
		<path fill="#FFFFFF" d="M124.162,81.595c-0.08-2.645-1.006-4.68-2.789-6.105c-1.48-1.256-3.394-1.884-5.737-1.884h-10.988v28.623
			h4.258V89.995h5.454l5.822,12.233h5.061l-6.511-12.702C122.3,88.126,124.109,85.481,124.162,81.595z M108.906,86.15v-8.7h6.69
			c1.366,0,2.412,0.295,3.135,0.886c0.915,0.669,1.385,1.753,1.41,3.249c0,1.247-0.393,2.297-1.179,3.149
			c-0.799,0.92-1.999,1.393-3.596,1.416H108.906z"/>
		<path fill="#FFFFFF" d="M143.798,77.341v24.888h4.259V89.995h11.702V86.15h-11.702v-6.557c0.099-1.068,0.999-1.907,2.109-1.907
			h-2.109l0,0h13.709v-4.081h-14.092C145.562,73.605,143.85,75.271,143.798,77.341"/>
		<path fill="#FFFFFF" d="M197.863,78.513c-0.656-1.323-1.724-2.501-3.201-3.533c-1.493-1.047-3.355-1.585-5.592-1.609
			c-2.211,0.026-4.057,0.56-5.534,1.603c-1.506,1.031-2.598,2.204-3.278,3.521c-0.424,0.695-0.74,1.605-0.945,2.732
			c-0.192,1.13-0.29,3.359-0.29,6.69c0,3.271,0.098,5.483,0.29,6.635c0.103,0.613,0.232,1.127,0.387,1.533
			c0.167,0.393,0.353,0.804,0.559,1.236c0.681,1.321,1.775,2.485,3.278,3.493c1.478,1.047,3.321,1.597,5.534,1.649
			c2.236-0.053,4.099-0.603,5.592-1.649c1.478-1.008,2.544-2.172,3.199-3.493c0.478-0.694,0.804-1.617,0.983-2.77
			c0.166-1.151,0.252-3.364,0.252-6.635c0-3.324-0.086-5.55-0.252-6.675C198.666,80.115,198.339,79.207,197.863,78.513
			 M194.549,93.642c-0.205,0.996-0.586,1.804-1.141,2.419c-0.426,0.59-0.992,1.07-1.699,1.436c-0.749,0.434-1.631,0.651-2.648,0.651
			c-1.004,0-1.867-0.218-2.589-0.651c-0.735-0.365-1.326-0.846-1.779-1.436c-0.554-0.615-0.922-1.423-1.101-2.419
			c-0.205-0.995-0.309-2.903-0.309-5.725c0-2.819,0.104-4.742,0.309-5.765c0.181-0.971,0.549-1.763,1.101-2.381
			c0.452-0.59,1.043-1.081,1.779-1.476c0.722-0.381,1.585-0.585,2.589-0.609c1.018,0.027,1.899,0.229,2.648,0.609
			c0.707,0.395,1.273,0.886,1.699,1.476c0.555,0.618,0.933,1.41,1.141,2.381c0.193,1.025,0.29,2.945,0.29,5.765
			C194.839,90.735,194.742,92.644,194.549,93.642"/>
		<polyline fill="#FFFFFF" points="223.39,73.605 219.131,73.605 219.131,102.229 237.1,102.229 237.1,98.147 223.39,98.147 
			223.39,73.605 		"/>
		<rect x="256.091" y="73.605" fill="#FFFFFF" width="4.26" height="28.623"/>
		<path fill="#FFFFFF" d="M299.751,81.242c-0.18-1.127-0.507-2.035-0.985-2.729c-0.654-1.323-1.722-2.501-3.199-3.533
			c-1.492-1.047-3.354-1.585-5.593-1.609c-2.21,0.026-4.056,0.56-5.534,1.603c-1.504,1.031-2.598,2.204-3.276,3.521
			c-0.426,0.695-0.742,1.605-0.944,2.732c-0.195,1.13-0.291,3.359-0.291,6.69c0,3.271,0.096,5.483,0.291,6.635
			c0.1,0.613,0.231,1.127,0.386,1.533c0.166,0.393,0.351,0.804,0.557,1.236c0.681,1.321,1.774,2.485,3.278,3.493
			c1.479,1.047,3.322,1.597,5.534,1.649c2.238-0.053,4.101-0.603,5.593-1.649c1.478-1.008,2.542-2.172,3.199-3.493
			c0.479-0.694,0.807-1.617,0.985-2.77C299.914,93.4,300,91.188,300,87.917C300,84.592,299.914,82.366,299.751,81.242
			 M295.452,93.642c-0.206,0.996-0.587,1.804-1.14,2.419c-0.427,0.59-0.992,1.07-1.701,1.436c-0.747,0.434-1.63,0.651-2.647,0.651
			c-1.005,0-1.868-0.218-2.59-0.651c-0.734-0.365-1.326-0.846-1.776-1.436c-0.557-0.615-0.923-1.423-1.104-2.419
			c-0.205-0.995-0.308-2.903-0.308-5.725c0-2.819,0.103-4.742,0.308-5.765c0.183-0.971,0.549-1.763,1.104-2.381
			c0.45-0.59,1.041-1.081,1.776-1.476c0.722-0.381,1.585-0.585,2.59-0.609c1.018,0.027,1.9,0.229,2.647,0.609
			c0.709,0.395,1.274,0.886,1.701,1.476c0.553,0.618,0.934,1.41,1.14,2.381c0.192,1.025,0.291,2.945,0.291,5.765
			C295.742,90.735,295.645,92.644,295.452,93.642"/>
	</g>
</g>
</svg>
