<?xml version="1.0" encoding="utf-8"?>
<!-- Generator: Adobe Illustrator 16.0.0, SVG Export Plug-In . SVG Version: 6.00 Build 0)  -->
<!DOCTYPE svg PUBLIC "-//W3C//DTD SVG 1.1//EN" "http://www.w3.org/Graphics/SVG/1.1/DTD/svg11.dtd">
<svg version="1.1" id="Shape_13_1_" xmlns="http://www.w3.org/2000/svg" xmlns:xlink="http://www.w3.org/1999/xlink" x="0px"
	 y="0px" width="27px" height="28px" viewBox="0 0 27 28" enable-background="new 0 0 27 28" xml:space="preserve">
<g id="Shape_13">
	<g>
		<path fill-rule="evenodd" clip-rule="evenodd" fill="#2FE08F" d="M25,0H7C6.06,0,5,1.061,5,2v5H1C0.06,7,0,8.061,0,9v17
			c0,0.938,1.061,2,2,2h23c0.939,0,2-1.063,2-2V2C27,1.061,25.939,0,25,0z M5,24.108L3,24V11h2V24.108z M24,25H8V3h16V25z M21,7H11
			v2h10V7z M21,12H11v2h10V12z M17,17h-6v2h6V17z"/>
	</g>
</g>
</svg>
