<?xml version="1.0" encoding="utf-8"?>
<!-- Generator: Adobe Illustrator 16.0.0, SVG Export Plug-In . SVG Version: 6.00 Build 0)  -->
<!DOCTYPE svg PUBLIC "-//W3C//DTD SVG 1.1//EN" "http://www.w3.org/Graphics/SVG/1.1/DTD/svg11.dtd">
<svg version="1.1" id="card_1_" xmlns="http://www.w3.org/2000/svg" xmlns:xlink="http://www.w3.org/1999/xlink" x="0px" y="0px"
	 width="31px" height="24px" viewBox="0 0 31 24" enable-background="new 0 0 31 24" xml:space="preserve">
<g id="card">
	<g>
		<path fill-rule="evenodd" clip-rule="evenodd" d="M28.45,0H2.549C0.92,0,0,1.371,0,3v18c0,1.629,0.92,3,2.549,3H28.45
			c1.629,0,2.55-1.371,2.55-3V3C31,1.371,30.079,0,28.45,0z M28,21H3V11h25V21z M28,6H3V3h25V6z M16.022,17.2h7.591
			c0.884,0,1.601-0.717,1.601-1.601S24.497,14,23.613,14h-7.591c-0.884,0-1.601,0.716-1.601,1.6S15.139,17.2,16.022,17.2z"/>
	</g>
</g>
</svg>
