<?xml version="1.0" encoding="utf-8"?>
<!-- Generator: Adobe Illustrator 16.0.0, SVG Export Plug-In . SVG Version: 6.00 Build 0)  -->
<!DOCTYPE svg PUBLIC "-//W3C//DTD SVG 1.1//EN" "http://www.w3.org/Graphics/SVG/1.1/DTD/svg11.dtd">
<svg version="1.1" id="Shape_8_1_" xmlns="http://www.w3.org/2000/svg" xmlns:xlink="http://www.w3.org/1999/xlink" x="0px" y="0px"
	 width="82px" height="82px" viewBox="0 0 82 82" enable-background="new 0 0 82 82" xml:space="preserve">
<g id="Shape_8">
	<g>
		<path fill-rule="evenodd" clip-rule="evenodd" fill="#FFFFFF" d="M41,0C18.393,0,0,18.393,0,41c0,22.606,18.393,41,41,41
			s41-18.394,41-41C82,18.393,63.607,0,41,0z M41,76.875C21.218,76.875,5.125,60.781,5.125,41C5.125,21.218,21.218,5.125,41,5.125
			c19.781,0,35.875,16.093,35.875,35.875C76.875,60.781,60.781,76.875,41,76.875z M60.164,38.75L31.978,23.375
			c-0.795-0.433-1.759-0.415-2.535,0.046c-0.778,0.462-1.255,1.3-1.255,2.203v30.751c0,0.904,0.477,1.741,1.255,2.203
			c0.402,0.239,0.854,0.359,1.308,0.359c0.422,0,0.845-0.104,1.228-0.313l28.187-15.375C60.988,42.8,61.5,41.937,61.5,41
			C61.5,40.063,60.988,39.199,60.164,38.75z M33.313,52.058V29.941L53.586,41L33.313,52.058z"/>
	</g>
</g>
</svg>
