<?xml version="1.0" encoding="utf-8"?>
<!-- Generator: Adobe Illustrator 16.0.0, SVG Export Plug-In . SVG Version: 6.00 Build 0)  -->
<!DOCTYPE svg PUBLIC "-//W3C//DTD SVG 1.1//EN" "http://www.w3.org/Graphics/SVG/1.1/DTD/svg11.dtd">
<svg version="1.1" id="Shape_2_1_" xmlns="http://www.w3.org/2000/svg" xmlns:xlink="http://www.w3.org/1999/xlink" x="0px" y="0px"
	 width="33px" height="40px" viewBox="0 0 33 40" enable-background="new 0 0 33 40" xml:space="preserve">
<g id="Shape_2">
	<g>
		<path fill-rule="evenodd" clip-rule="evenodd" fill="#2FE08F" d="M31.014,36.527L18.756,9.731C19.385,9.625,20,9.387,20.563,9.003
			c2.172-1.479,2.744-4.516,1.278-6.782c-1.466-2.266-4.416-2.902-6.588-1.424c-1.262,0.859-1.979,2.245-2.076,3.7
			c-0.069,1.049,0.183,2.132,0.797,3.081c0.13,0.201,0.275,0.384,0.427,0.56c0.199,0.23,0.416,0.438,0.646,0.622l2.58,5.882
			l0.739,1.5l1.104,2.243c-0.065-0.002-0.131,0.008-0.196,0.013c-0.191,0.014-0.382,0.05-0.565,0.119l-0.963-1.953l-2.023,1.378
			l-5.379-5.893c-0.078-0.315-0.186-0.625-0.326-0.927c-0.099-0.211-0.207-0.419-0.336-0.62C9.044,9.517,8.126,8.84,7.113,8.511
			C5.797,8.083,4.322,8.242,3.095,9.078c-2.172,1.479-2.745,4.515-1.279,6.78c1.466,2.267,4.416,2.904,6.588,1.425
			c0.543-0.369,0.987-0.839,1.324-1.367l17.445,19.777l-5.414-10.988l-0.164-0.334l-1.004-2.037
			c0.008-0.006,0.018-0.009,0.025-0.015c0.102-0.069,0.191-0.15,0.277-0.233c0.096-0.094,0.179-0.195,0.254-0.303l1.231,2.5
			l6.668,13.534l0.029,0.033C31.994,41.16,32.861,40.566,31.014,36.527z M17.864,7.784c-0.663-0.021-1.309-0.29-1.817-0.769
			c-0.168-0.158-0.327-0.331-0.459-0.536c-0.864-1.336-0.527-3.126,0.754-3.998c1.281-0.872,3.019-0.496,3.883,0.84
			s0.527,3.127-0.753,3.999C18.979,7.656,18.418,7.803,17.864,7.784z M8.329,14.331c-0.203,0.502-0.544,0.948-1.015,1.269
			c-1.281,0.872-3.02,0.496-3.884-0.84c-0.864-1.337-0.527-3.126,0.754-3.999c1.281-0.872,3.02-0.496,3.884,0.84
			c0.133,0.205,0.228,0.421,0.304,0.643C8.612,12.935,8.593,13.679,8.329,14.331z M20.728,20.935
			c-0.039,0.136-0.094,0.265-0.173,0.383c-0.081,0.122-0.186,0.23-0.308,0.322c-0.017,0.013-0.03,0.028-0.047,0.04
			c-0.269,0.181-0.577,0.242-0.874,0.208c-0.383-0.045-0.746-0.252-0.978-0.61c-0.142-0.218-0.21-0.461-0.222-0.704
			c-0.022-0.466,0.18-0.929,0.581-1.202c0.108-0.073,0.225-0.122,0.343-0.159c0.184-0.057,0.375-0.072,0.561-0.045
			c0.096,0.013,0.188,0.035,0.279,0.068c0.264,0.1,0.501,0.277,0.669,0.538C20.791,20.131,20.836,20.556,20.728,20.935z"/>
	</g>
</g>
</svg>
