<?xml version="1.0" encoding="utf-8"?>
<!-- Generator: Adobe Illustrator 16.0.0, SVG Export Plug-In . SVG Version: 6.00 Build 0)  -->
<!DOCTYPE svg PUBLIC "-//W3C//DTD SVG 1.1//EN" "http://www.w3.org/Graphics/SVG/1.1/DTD/svg11.dtd">
<svg version="1.1" id="Shape_3_1_" xmlns="http://www.w3.org/2000/svg" xmlns:xlink="http://www.w3.org/1999/xlink" x="0px" y="0px"
	 width="32px" height="32px" viewBox="0 0 32 32" enable-background="new 0 0 32 32" xml:space="preserve">
<g id="Shape_3">
	<g>
		<path fill-rule="evenodd" clip-rule="evenodd" fill="#FFFFFF" d="M29,15.999c-0.553,0-1,0.448-1,1v12H2v-20h7c0.552,0,1-0.448,1-1
			s-0.448-1-1-1H2c-1.103,0-2,0.897-2,2v20c0,1.103,0.897,2,2,2h26c1.104,0,2-0.897,2-2v-12C30,16.447,29.553,15.999,29,15.999z
			 M31.707,7.292l-6-6c-0.391-0.391-1.023-0.391-1.414,0s-0.391,1.023,0,1.414l4.293,4.293H21c-7.168,0-13,5.832-13,13
			c0,0.553,0.448,1,1,1s1-0.447,1-1c0-6.065,4.935-11,11-11h7.586l-4.293,4.293c-0.391,0.391-0.391,1.023,0,1.415
			c0.195,0.194,0.451,0.292,0.707,0.292s0.512-0.098,0.707-0.292l6-6.001C32.098,8.315,32.098,7.683,31.707,7.292z"/>
	</g>
</g>
</svg>
