<?xml version="1.0" encoding="utf-8"?>
<!-- Generator: Adobe Illustrator 16.0.0, SVG Export Plug-In . SVG Version: 6.00 Build 0)  -->
<!DOCTYPE svg PUBLIC "-//W3C//DTD SVG 1.1//EN" "http://www.w3.org/Graphics/SVG/1.1/DTD/svg11.dtd">
<svg version="1.1" id="twitter_1_" xmlns="http://www.w3.org/2000/svg" xmlns:xlink="http://www.w3.org/1999/xlink" x="0px" y="0px"
	 width="32px" height="29px" viewBox="0 0 32 29" enable-background="new 0 0 32 29" xml:space="preserve">
<g id="twitter">
	<g>
		<path fill-rule="evenodd" clip-rule="evenodd" fill="#212121" d="M31.518,5.035c-1.16,0.489-2.406,0.817-3.714,0.966
			c1.335-0.761,2.359-1.964,2.843-3.395c-1.25,0.702-2.634,1.213-4.106,1.488c-1.179-1.193-2.859-1.938-4.719-1.938
			c-3.569,0-6.466,2.747-6.466,6.138c0,0.481,0.057,0.951,0.167,1.398C10.149,9.438,5.386,6.994,2.197,3.28
			C1.641,4.188,1.322,5.24,1.322,6.367c0,2.128,1.142,4.009,2.876,5.109c-1.06-0.033-2.057-0.309-2.929-0.769
			c0,0.027,0,0.05,0,0.078c0,2.974,2.229,5.454,5.186,6.018c-0.542,0.142-1.114,0.215-1.703,0.215c-0.417,0-0.822-0.037-1.217-0.108
			c0.822,2.438,3.21,4.213,6.041,4.264c-2.213,1.646-5.001,2.627-8.03,2.627c-0.522,0-1.036-0.028-1.542-0.085
			c2.861,1.739,6.26,2.757,9.91,2.757c11.893,0,18.396-9.355,18.396-17.466c0-0.267-0.007-0.53-0.019-0.796
			C29.555,7.346,30.65,6.266,31.518,5.035z"/>
	</g>
</g>
</svg>
