<?xml version="1.0" encoding="utf-8"?>
<!-- Generator: Adobe Illustrator 16.0.0, SVG Export Plug-In . SVG Version: 6.00 Build 0)  -->
<!DOCTYPE svg PUBLIC "-//W3C//DTD SVG 1.1//EN" "http://www.w3.org/Graphics/SVG/1.1/DTD/svg11.dtd">
<svg version="1.1" id="star_1_" xmlns="http://www.w3.org/2000/svg" xmlns:xlink="http://www.w3.org/1999/xlink" x="0px" y="0px"
	 width="28px" height="28px" viewBox="0 0 28 28" enable-background="new 0 0 28 28" xml:space="preserve">
<g id="star">
	<g>
		<path fill-rule="evenodd" clip-rule="evenodd" fill="#2FE08F" d="M27.362,11.506c0.581-0.596,0.458-1.173,0.379-1.393
			c-0.082-0.222-0.355-0.743-1.185-0.822l-7.819-0.735c-0.176-0.016-0.466-0.226-0.536-0.39l-3.143-7.298
			C14.721,0.084,14.138,0,13.904,0c-0.234,0-0.817,0.084-1.155,0.87L9.608,8.167c-0.07,0.162-0.359,0.374-0.534,0.39L1.251,9.293
			C0.425,9.37,0.151,9.891,0.07,10.112c-0.081,0.219-0.205,0.796,0.378,1.393L6.36,17.56c0.125,0.13,0.216,0.488,0.168,0.662
			l-2.295,8.166c-0.168,0.598-0.011,0.979,0.151,1.196c0.356,0.476,1.042,0.558,1.671,0.126l7.599-5.235
			c0.061-0.043,0.44-0.042,0.5,0l7.6,5.235c0.28,0.191,0.559,0.29,0.831,0.29c0.337,0,0.643-0.151,0.84-0.416
			c0.162-0.217,0.32-0.599,0.151-1.193l-2.294-8.172c-0.049-0.172,0.041-0.529,0.167-0.66L27.362,11.506z M19.61,18.698l1.884,6.712
			l-6.358-4.379c-0.34-0.235-0.777-0.364-1.231-0.364c-0.455,0-0.892,0.129-1.231,0.364L6.314,25.41L8.2,18.697
			c0.218-0.775-0.042-1.791-0.602-2.363l-5.256-5.386l6.893-0.649c0.8-0.075,1.646-0.692,1.968-1.437l2.703-6.275l2.703,6.274
			c0.317,0.745,1.165,1.362,1.967,1.438l6.896,0.648l-5.258,5.385C19.648,16.907,19.391,17.925,19.61,18.698z"/>
	</g>
</g>
</svg>
