<?xml version="1.0" encoding="utf-8"?>
<!-- Generator: Adobe Illustrator 16.0.0, SVG Export Plug-In . SVG Version: 6.00 Build 0)  -->
<!DOCTYPE svg PUBLIC "-//W3C//DTD SVG 1.1//EN" "http://www.w3.org/Graphics/SVG/1.1/DTD/svg11.dtd">
<svg version="1.1" id="shop-2_1_" xmlns="http://www.w3.org/2000/svg" xmlns:xlink="http://www.w3.org/1999/xlink" x="0px" y="0px"
	 width="28px" height="28px" viewBox="0 0 28 28" enable-background="new 0 0 28 28" xml:space="preserve">
<g id="shop-2">
	<g>
		<path fill-rule="evenodd" clip-rule="evenodd" fill="#FFFFFF" d="M26.982,8.578c0.002-0.047,0.014-0.092,0.014-0.14
			c0-0.032-0.015-0.059-0.018-0.089c-0.004-0.032,0.005-0.063-0.002-0.095l-1.688-7.593c-0.006-0.027-0.023-0.046-0.032-0.072
			c-0.017-0.054-0.04-0.103-0.067-0.152c-0.026-0.048-0.055-0.092-0.09-0.133c-0.034-0.041-0.072-0.074-0.113-0.108
			c-0.043-0.035-0.086-0.065-0.135-0.091c-0.046-0.024-0.094-0.041-0.144-0.057c-0.057-0.017-0.111-0.029-0.171-0.034
			C24.513,0.013,24.49,0,24.465,0H2.525C2.5,0,2.478,0.013,2.452,0.015C2.395,0.021,2.341,0.032,2.286,0.049
			c-0.053,0.016-0.102,0.034-0.15,0.059C2.09,0.132,2.05,0.161,2.009,0.194C1.965,0.229,1.925,0.265,1.888,0.308
			c-0.034,0.04-0.06,0.082-0.086,0.128c-0.028,0.05-0.052,0.1-0.069,0.155C1.725,0.616,1.707,0.635,1.701,0.662L0.014,8.254
			C0.006,8.287,0.015,8.317,0.012,8.35C0.009,8.38-0.006,8.407-0.006,8.438c0,0.046,0.012,0.089,0.014,0.135
			C0.009,8.581,0.009,8.588,0.01,8.596c0.056,1.176,0.711,2.187,1.671,2.747v13.968c0,0.932,0.757,1.688,1.688,1.688h5.063
			c0.93,0,1.688-0.756,1.688-1.688v-7.592l6.785-0.02v7.615c0,0.93,0.723,1.684,1.653,1.684h5.063c0.93,0,1.688-0.756,1.688-1.688
			V11.343c0.961-0.56,1.616-1.572,1.672-2.749C26.981,8.589,26.981,8.583,26.982,8.578z M23.621,10.125
			c-0.932,0-1.688-0.757-1.688-1.687c0-0.467-0.377-0.845-0.843-0.845c-0.467,0-0.845,0.378-0.845,0.845
			c0,0.93-0.757,1.687-1.688,1.687S16.87,9.368,16.87,8.438c0-0.467-0.378-0.845-0.844-0.845s-0.845,0.378-0.845,0.845
			c0,0.93-0.756,1.687-1.688,1.687c-0.93,0-1.687-0.757-1.687-1.687c0-0.467-0.377-0.845-0.844-0.845S10.12,7.971,10.12,8.438
			c0,0.93-0.757,1.687-1.688,1.687S6.745,9.368,6.745,8.438c0-0.467-0.378-0.845-0.844-0.845S5.057,7.971,5.057,8.438
			c0,0.93-0.757,1.687-1.688,1.687c-0.908,0-1.647-0.723-1.681-1.623l1.529-6.878h20.557l1.528,6.879
			C25.267,9.402,24.528,10.125,23.621,10.125z M23.692,25.314l-5.135-0.004v-7.592c0-0.932-0.757-1.688-1.688-1.688h-6.75
			c-0.93,0-1.688,0.756-1.688,1.688v7.592l-5.105,0.004V11.808c0.015,0,0.028,0.004,0.042,0.004c1.013,0,1.912-0.458,2.531-1.166
			c0.619,0.708,1.519,1.166,2.532,1.166c1.013,0,1.912-0.458,2.531-1.166c0.619,0.708,1.518,1.166,2.531,1.166
			c1.014,0,1.913-0.458,2.532-1.166c0.619,0.708,1.519,1.166,2.531,1.166c1.014,0,1.912-0.458,2.531-1.166
			c0.619,0.708,1.519,1.166,2.532,1.166c0.024,0,0.047-0.007,0.071-0.007V25.314z"/>
	</g>
</g>
</svg>
