<?xml version="1.0" encoding="utf-8"?>
<!-- Generator: Adobe Illustrator 16.0.0, SVG Export Plug-In . SVG Version: 6.00 Build 0)  -->
<!DOCTYPE svg PUBLIC "-//W3C//DTD SVG 1.1//EN" "http://www.w3.org/Graphics/SVG/1.1/DTD/svg11.dtd">
<svg version="1.1" id="Cart_1_" xmlns="http://www.w3.org/2000/svg" xmlns:xlink="http://www.w3.org/1999/xlink" x="0px" y="0px"
	 width="37px" height="35px" viewBox="0 0 37 35" enable-background="new 0 0 37 35" xml:space="preserve">
<g id="Cart">
	<g>
		<path fill-rule="evenodd" clip-rule="evenodd" fill="#2FE08F" d="M36.998,10.488c0.002-0.515-0.3-0.991-0.793-1.129
			c-0.117-0.033-0.232-0.031-0.348-0.023c-0.005,0-0.009-0.003-0.014-0.003h-0.028c-0.018,0.002-0.035-0.003-0.053,0H11.035
			L9.203,1.4C9.219,1.322,9.25,1.249,9.25,1.165c0-0.578-0.425-1.037-0.973-1.129C8.218,0.021,8.162,0.005,8.1,0
			C8.098,0,8.096-0.001,8.094-0.001H1.156C0.518-0.001,0,0.521,0,1.165s0.518,1.167,1.156,1.167h6.005l5.733,24.82
			c0.157,0.619,0.758,0.986,1.343,0.82c0.093-0.026,0.168-0.083,0.249-0.131c0.165,0.091,0.345,0.156,0.546,0.156h16.188
			c0.002,0,0.003-0.001,0.005-0.001c0.063-0.005,0.121-0.021,0.182-0.037c0.546-0.093,0.97-0.55,0.97-1.128
			c0-0.06-0.025-0.11-0.033-0.167L36.98,10.78c0.022-0.087,0.013-0.174,0.016-0.261c0-0.007,0.004-0.013,0.004-0.021
			C37,10.495,36.998,10.492,36.998,10.488z M30.341,25.666h-15.31c-0.076,0-0.142,0.029-0.214,0.044l-3.244-14.045H34.43
			L30.341,25.666z M27.75,30.331c-1.277,0-2.313,1.046-2.313,2.334c0,1.289,1.035,2.333,2.313,2.333s2.313-1.044,2.313-2.333
			C30.063,31.377,29.027,30.331,27.75,30.331z M16.188,30.331c-1.277,0-2.313,1.046-2.313,2.334c0,1.289,1.036,2.333,2.313,2.333
			c1.277,0,2.313-1.044,2.313-2.333C18.5,31.377,17.464,30.331,16.188,30.331z"/>
	</g>
</g>
</svg>
